# xmcd
#
# Track frame offsets:
#   150
#   19092
#   33851
#   45890
#   74200
#   92855
#   111531
#   130533
#   148066
#   158906
#   171853
#   194533
#
# Disc length: 2846 seconds
#
# Revision: 0
# Processed by: cddbd v1.5.1PL0 Copyright (c) Steve Scherf et al.
# Submitted via: Media_Universe 3.0
#
DISCID=a90b1c0c
DTITLE=Garth Brooks - Fresh Horses
DYEAR=1900
DGENRE=Country
TTITLE0=The Old Stuff
TTITLE1=Cowboys And Angels
TTITLE2=The Fever
TTITLE3=That Ol Wind
TTITLE4=Rollin'
TTITLE5=The Change
TTITLE6=The Beaches Of Cheyenne
TTITLE7=To Make You Feel My Love
TTITLE8=it's Midnight Cinderella
TTITLE9=She's Every Woman
TTITLE10=Ireland
TTITLE11=When The Old Was New
EXTD=
EXTT0=
EXTT1=
EXTT2=
EXTT3=
EXTT4=
EXTT5=
EXTT6=
EXTT7=
EXTT8=
EXTT9=
EXTT10=
EXTT11=
PLAYORDER=
